<svg width="180" height="180" viewBox="0 0 180 180" fill="none" xmlns="http://www.w3.org/2000/svg">
  <defs>
    <linearGradient id="beerGrad180" x1="0%" y1="0%" x2="0%" y2="100%">
      <stop offset="0%" style="stop-color:#fbbf24;stop-opacity:1" />
      <stop offset="100%" style="stop-color:#f59e0b;stop-opacity:1" />
    </linearGradient>
  </defs>
  <rect width="180" height="180" fill="#1f2937"/>
  <g transform="translate(37, 33)">
    <path d="M19 26h68v75c0 8.284-6.716 15-15 15H34c-8.284 0-15-6.716-15-15V26z" fill="url(#beerGrad180)"/>
    <ellipse cx="53" cy="26" rx="34" ry="7.5" fill="#fde68a"/>
    <path d="M19 26c0 4.142 15.222 7.5 34 7.5s34-3.358 34-7.5" stroke="#fbbf24" stroke-width="1" fill="none"/>
    <rect x="17" y="30" width="4" height="71" rx="2" fill="#d97706"/>
    <rect x="85" y="30" width="4" height="71" rx="2" fill="#d97706"/>
    <path d="M87 45h7.5c6.213 0 11.25 5.037 11.25 11.25v7.5c0 6.213-5.037 11.25-11.25 11.25H87" stroke="#d97706" stroke-width="4" stroke-linejoin="round" fill="none"/>
    <ellipse cx="38" cy="21" rx="17" ry="5.6" fill="white" opacity="0.9"/>
    <ellipse cx="42" cy="19" rx="11" ry="3.7" fill="white" opacity="0.7"/>
    <ellipse cx="66" cy="22" rx="13" ry="4.7" fill="white" opacity="0.8"/>
  </g>
</svg>
