<svg width="32" height="32" viewBox="0 0 32 32" fill="none" xmlns="http://www.w3.org/2000/svg">
  <defs>
    <linearGradient id="beerGrad32" x1="0%" y1="0%" x2="0%" y2="100%">
      <stop offset="0%" style="stop-color:#fbbf24;stop-opacity:1" />
      <stop offset="100%" style="stop-color:#f59e0b;stop-opacity:1" />
    </linearGradient>
  </defs>
  <rect width="32" height="32" fill="#1f2937"/>
  <g transform="translate(6.5, 6)">
    <path d="M3.5 4.5h12v13.5c0 1.5-1.2 2.7-2.7 2.7H6.2c-1.5 0-2.7-1.2-2.7-2.7V4.5z" fill="url(#beerGrad32)"/>
    <ellipse cx="9.5" cy="4.5" rx="6" ry="1.3" fill="#fde68a"/>
    <path d="M3.5 4.5c0 0.72 2.7 1.3 6 1.3s6-0.58 6-1.3" stroke="#fbbf24" stroke-width="0.2" fill="none"/>
    <rect x="3" y="5.3" width="0.7" height="12.7" rx="0.35" fill="#d97706"/>
    <rect x="15.3" y="5.3" width="0.7" height="12.7" rx="0.35" fill="#d97706"/>
    <path d="M15.5 8h1.3c1.1 0 2 0.9 2 2v1.3c0 1.1-0.9 2-2 2h-1.3" stroke="#d97706" stroke-width="0.7" stroke-linejoin="round" fill="none"/>
    <ellipse cx="6.7" cy="3.5" rx="3" ry="1" fill="white" opacity="0.9"/>
    <ellipse cx="7.5" cy="3.2" rx="2" ry="0.7" fill="white" opacity="0.7"/>
    <ellipse cx="11.7" cy="3.7" rx="2.3" ry="0.8" fill="white" opacity="0.8"/>
  </g>
</svg>
