<svg width="512" height="512" viewBox="0 0 512 512" fill="none" xmlns="http://www.w3.org/2000/svg">
  <defs>
    <linearGradient id="beerGrad512" x1="0%" y1="0%" x2="0%" y2="100%">
      <stop offset="0%" style="stop-color:#fbbf24;stop-opacity:1" />
      <stop offset="100%" style="stop-color:#f59e0b;stop-opacity:1" />
    </linearGradient>
  </defs>
  <rect width="512" height="512" rx="112" fill="#1f2937"/>
  <g transform="translate(106, 93)">
    <path d="M53 75h192v213c0 23.5-19.5 43-43 43H96c-23.5 0-43-19.5-43-43V75z" fill="url(#beerGrad512)"/>
    <ellipse cx="149" cy="75" rx="96" ry="21" fill="#fde68a"/>
    <path d="M53 75c0 11.6 43 21 96 21s96-9.4 96-21" stroke="#fbbf24" stroke-width="3" fill="none"/>
    <rect x="48" y="85" width="10" height="203" rx="5" fill="#d97706"/>
    <rect x="240" y="85" width="10" height="203" rx="5" fill="#d97706"/>
    <path d="M245 128h21c17.673 0 32 14.327 32 32v21c0 17.673-14.327 32-32 32h-21" stroke="#d97706" stroke-width="11" stroke-linejoin="round" fill="none"/>
    <ellipse cx="106" cy="59" rx="48" ry="16" fill="white" opacity="0.9"/>
    <ellipse cx="120" cy="53" rx="32" ry="11" fill="white" opacity="0.7"/>
    <ellipse cx="186" cy="64" rx="37" ry="13" fill="white" opacity="0.8"/>
  </g>
</svg>
